# xmcd CD database file
#
# Track frame offsets:
#	150
#	16478
#	30906
#	44841
#	61716
#	77478
#	97596
#	116070
#	139454
#	149494
#	166396
#	188744
#	203550
#
# Disc length: 3030 seconds
#
# Revision: 0
# Processed by: cddbd v1.5.2PL0 Copyright (c) Steve Scherf et al.
# Submitted via: CDex 1.70beta2
#
DISCID=a90bd40d
DTITLE=Nina Storey - So Many Ways From: me To: you
DYEAR=2007
DGENRE=Blues
TTITLE0=I Have Been Found
TTITLE1=So Many Ways
TTITLE2=Yesterday Morning
TTITLE3=Deja vu
TTITLE4=Change Her
TTITLE5=Getting Over You
TTITLE6=Someone Else
TTITLE7=Time To Fly
TTITLE8=Rae
TTITLE9=Mary Is Walking
TTITLE10=Little Conversation
TTITLE11=Crush
TTITLE12=Woman
EXTD=YEAR: 2007
EXTT0=
EXTT1=
EXTT2=
EXTT3=
EXTT4=
EXTT5=
EXTT6=
EXTT7=
EXTT8=
EXTT9=
EXTT10=
EXTT11=
EXTT12=
PLAYORDER=
